<svg width="138" height="53" viewBox="0 0 138 53" fill="none" xmlns="http://www.w3.org/2000/svg">
<path d="M29.708 48C29.3907 48 29.1293 47.93 28.924 47.79C28.728 47.65 28.63 47.496 28.63 47.328V41.994C28.63 41.798 28.728 41.6393 28.924 41.518C29.1293 41.3967 29.3907 41.336 29.708 41.336C29.9693 41.336 30.1933 41.3967 30.38 41.518C30.5667 41.6393 30.66 41.798 30.66 41.994V42.316C30.7907 42.0453 31.0193 41.8027 31.346 41.588C31.6727 41.364 32.0693 41.252 32.536 41.252C32.9653 41.252 33.3573 41.3873 33.712 41.658C34.076 41.9193 34.3653 42.274 34.58 42.722C34.804 43.1607 34.916 43.6507 34.916 44.192V47.328C34.916 47.552 34.7993 47.72 34.566 47.832C34.342 47.944 34.0947 48 33.824 48C33.572 48 33.3293 47.944 33.096 47.832C32.8627 47.72 32.746 47.552 32.746 47.328V44.192C32.746 44.0147 32.6993 43.8467 32.606 43.688C32.522 43.5293 32.4007 43.3987 32.242 43.296C32.0927 43.1933 31.9247 43.142 31.738 43.142C31.5887 43.142 31.4393 43.184 31.29 43.268C31.15 43.352 31.0333 43.4733 30.94 43.632C30.8467 43.7813 30.8 43.968 30.8 44.192V47.328C30.8 47.496 30.6927 47.65 30.478 47.79C30.2633 47.93 30.0067 48 29.708 48ZM39.2865 40.048C38.9692 40.048 38.6985 39.9453 38.4745 39.74C38.2505 39.5347 38.1385 39.3013 38.1385 39.04C38.1385 38.7693 38.2505 38.536 38.4745 38.34C38.6985 38.144 38.9692 38.046 39.2865 38.046C39.6038 38.046 39.8698 38.144 40.0845 38.34C40.3085 38.536 40.4205 38.7693 40.4205 39.04C40.4205 39.3013 40.3085 39.5347 40.0845 39.74C39.8698 39.9453 39.6038 40.048 39.2865 40.048ZM39.2865 48C38.9692 48 38.7078 47.93 38.5025 47.79C38.3065 47.65 38.2085 47.496 38.2085 47.328V41.994C38.2085 41.798 38.3065 41.6393 38.5025 41.518C38.7078 41.3967 38.9692 41.336 39.2865 41.336C39.5852 41.336 39.8418 41.3967 40.0565 41.518C40.2712 41.6393 40.3785 41.798 40.3785 41.994V47.328C40.3785 47.496 40.2712 47.65 40.0565 47.79C39.8418 47.93 39.5852 48 39.2865 48ZM44.8045 48C44.4872 48 44.2258 47.93 44.0205 47.79C43.8245 47.65 43.7265 47.496 43.7265 47.328V41.994C43.7265 41.798 43.8245 41.6393 44.0205 41.518C44.2258 41.3967 44.4872 41.336 44.8045 41.336C45.0658 41.336 45.2898 41.3967 45.4765 41.518C45.6632 41.6393 45.7565 41.798 45.7565 41.994V42.316C45.9152 42.0453 46.1485 41.8027 46.4565 41.588C46.7645 41.364 47.1472 41.252 47.6045 41.252C47.9872 41.252 48.3232 41.3827 48.6125 41.644C48.9018 41.9053 49.1165 42.2413 49.2565 42.652C49.4992 42.176 49.8072 41.826 50.1805 41.602C50.5632 41.3687 50.9552 41.252 51.3565 41.252C51.7952 41.252 52.2058 41.3687 52.5885 41.602C52.9805 41.826 53.2978 42.1573 53.5405 42.596C53.7832 43.0347 53.9045 43.5667 53.9045 44.192V47.328C53.9045 47.496 53.7972 47.65 53.5825 47.79C53.3678 47.93 53.1112 48 52.8125 48C52.5232 48 52.2712 47.93 52.0565 47.79C51.8418 47.65 51.7345 47.496 51.7345 47.328V44.192C51.7345 43.9587 51.6878 43.7627 51.5945 43.604C51.5105 43.4453 51.3938 43.3287 51.2445 43.254C51.1045 43.17 50.9552 43.128 50.7965 43.128C50.6472 43.128 50.5025 43.17 50.3625 43.254C50.2318 43.3287 50.1198 43.4453 50.0265 43.604C49.9425 43.7533 49.9005 43.9493 49.9005 44.192V47.342C49.9005 47.5753 49.7838 47.7433 49.5505 47.846C49.3265 47.9487 49.0792 48 48.8085 48C48.5565 48 48.3138 47.9487 48.0805 47.846C47.8472 47.7433 47.7305 47.5753 47.7305 47.342V44.206C47.7305 43.9727 47.6838 43.7767 47.5905 43.618C47.4972 43.4593 47.3758 43.3427 47.2265 43.268C47.0865 43.184 46.9372 43.142 46.7785 43.142C46.6292 43.142 46.4845 43.1793 46.3445 43.254C46.2138 43.3287 46.1065 43.4453 46.0225 43.604C45.9385 43.7533 45.8965 43.9493 45.8965 44.192V47.328C45.8965 47.496 45.7892 47.65 45.5745 47.79C45.3598 47.93 45.1032 48 44.8045 48ZM60.5052 48.14C59.8145 48.14 59.2032 48.0187 58.6712 47.776C58.1392 47.524 57.7192 47.174 57.4112 46.726C57.1125 46.278 56.9632 45.76 56.9632 45.172V44.15C56.9632 43.6273 57.1078 43.1467 57.3972 42.708C57.6865 42.2693 58.0738 41.9193 58.5592 41.658C59.0445 41.3873 59.5858 41.252 60.1832 41.252C60.7245 41.252 61.2192 41.364 61.6672 41.588C62.1245 41.812 62.4932 42.1247 62.7732 42.526C63.0532 42.918 63.1932 43.38 63.1932 43.912C63.1932 44.332 63.1232 44.6353 62.9832 44.822C62.8525 44.9993 62.6798 45.1113 62.4652 45.158C62.2598 45.1953 62.0498 45.214 61.8352 45.214H59.1332V45.298C59.1332 45.6433 59.2638 45.9233 59.5252 46.138C59.7865 46.3433 60.1318 46.446 60.5612 46.446C60.8505 46.446 61.0978 46.404 61.3032 46.32C61.5085 46.2267 61.6905 46.138 61.8492 46.054C62.0078 45.97 62.1618 45.928 62.3112 45.928C62.4792 45.928 62.6238 45.984 62.7452 46.096C62.8665 46.208 62.9552 46.3387 63.0112 46.488C63.0765 46.6373 63.1092 46.768 63.1092 46.88C63.1092 47.0573 63.0018 47.244 62.7872 47.44C62.5725 47.636 62.2692 47.804 61.8772 47.944C61.4945 48.0747 61.0372 48.14 60.5052 48.14ZM59.1332 43.996H60.8692C60.9718 43.996 61.0465 43.9727 61.0932 43.926C61.1398 43.8793 61.1632 43.7907 61.1632 43.66C61.1632 43.4733 61.1118 43.3193 61.0092 43.198C60.9158 43.0673 60.7898 42.974 60.6312 42.918C60.4818 42.8527 60.3185 42.82 60.1412 42.82C59.9732 42.82 59.8098 42.8527 59.6512 42.918C59.5018 42.974 59.3758 43.0673 59.2732 43.198C59.1798 43.3193 59.1332 43.4733 59.1332 43.66V43.996Z" fill="#F7F7F7"/>
<rect x="0.25" y="29.25" width="23.5" height="23.5" rx="3.75" stroke="#F7F7F7" stroke-width="0.5"/>
<path d="M8.19133 49C7.91133 49 7.61133 48.9467 7.29133 48.84C6.98466 48.72 6.72466 48.5667 6.51133 48.38C6.29799 48.18 6.19133 47.96 6.19133 47.72C6.19133 47.68 6.20466 47.6067 6.23133 47.5L9.95133 35.3C10.058 34.9533 10.3113 34.6933 10.7113 34.52C11.1113 34.3467 11.538 34.26 11.9913 34.26C12.458 34.26 12.8847 34.3467 13.2713 34.52C13.6713 34.6933 13.9247 34.9533 14.0313 35.3L17.7713 47.5C17.798 47.6067 17.8113 47.68 17.8113 47.72C17.8113 47.96 17.7047 48.18 17.4913 48.38C17.278 48.5667 17.018 48.72 16.7113 48.84C16.4047 48.9467 16.1047 49 15.8113 49C15.558 49 15.338 48.96 15.1513 48.88C14.978 48.7867 14.858 48.6333 14.7913 48.42L14.1113 45.92H9.89133L9.21133 48.42C9.15799 48.6333 9.03799 48.7867 8.85133 48.88C8.66466 48.96 8.44466 49 8.19133 49ZM10.5313 43.52H13.4513L11.9913 38.16L10.5313 43.52Z" fill="#F7F7F7"/>
<path d="M31.9966 19.182C31.7819 19.182 31.5766 19.1493 31.3806 19.084C31.1939 19.0187 31.0726 18.9253 31.0166 18.804L28.5526 13.414C28.5339 13.3767 28.5152 13.3347 28.4966 13.288C28.4872 13.232 28.4826 13.1853 28.4826 13.148C28.4826 12.98 28.5666 12.826 28.7346 12.686C28.9026 12.546 29.0986 12.4387 29.3226 12.364C29.5559 12.28 29.7659 12.238 29.9526 12.238C30.0832 12.238 30.2046 12.266 30.3166 12.322C30.4286 12.3687 30.5079 12.4573 30.5546 12.588L31.9966 16.242L33.4386 12.588C33.4852 12.4573 33.5599 12.3687 33.6626 12.322C33.7746 12.266 33.8959 12.238 34.0266 12.238C34.1759 12.238 34.3672 12.28 34.6006 12.364C34.8339 12.448 35.0392 12.56 35.2166 12.7C35.4032 12.84 35.4966 12.994 35.4966 13.162C35.4966 13.2087 35.4919 13.2507 35.4826 13.288C35.4732 13.3253 35.4592 13.3673 35.4406 13.414L32.9766 18.804C32.9206 18.9253 32.7946 19.0187 32.5986 19.084C32.4119 19.1493 32.2112 19.182 31.9966 19.182ZM41.4749 19.14C40.7842 19.14 40.1729 19.0187 39.6409 18.776C39.1089 18.524 38.6889 18.174 38.3809 17.726C38.0822 17.278 37.9329 16.76 37.9329 16.172V15.15C37.9329 14.6273 38.0776 14.1467 38.3669 13.708C38.6562 13.2693 39.0436 12.9193 39.5289 12.658C40.0142 12.3873 40.5556 12.252 41.1529 12.252C41.6942 12.252 42.1889 12.364 42.6369 12.588C43.0942 12.812 43.4629 13.1247 43.7429 13.526C44.0229 13.918 44.1629 14.38 44.1629 14.912C44.1629 15.332 44.0929 15.6353 43.9529 15.822C43.8222 15.9993 43.6496 16.1113 43.4349 16.158C43.2296 16.1953 43.0196 16.214 42.8049 16.214H40.1029V16.298C40.1029 16.6433 40.2336 16.9233 40.4949 17.138C40.7562 17.3433 41.1016 17.446 41.5309 17.446C41.8202 17.446 42.0676 17.404 42.2729 17.32C42.4782 17.2267 42.6602 17.138 42.8189 17.054C42.9776 16.97 43.1316 16.928 43.2809 16.928C43.4489 16.928 43.5936 16.984 43.7149 17.096C43.8362 17.208 43.9249 17.3387 43.9809 17.488C44.0462 17.6373 44.0789 17.768 44.0789 17.88C44.0789 18.0573 43.9716 18.244 43.7569 18.44C43.5422 18.636 43.2389 18.804 42.8469 18.944C42.4642 19.0747 42.0069 19.14 41.4749 19.14ZM40.1029 14.996H41.8389C41.9416 14.996 42.0162 14.9727 42.0629 14.926C42.1096 14.8793 42.1329 14.7907 42.1329 14.66C42.1329 14.4733 42.0816 14.3193 41.9789 14.198C41.8856 14.0673 41.7596 13.974 41.6009 13.918C41.4516 13.8527 41.2882 13.82 41.1109 13.82C40.9429 13.82 40.7796 13.8527 40.6209 13.918C40.4716 13.974 40.3456 14.0673 40.2429 14.198C40.1496 14.3193 40.1029 14.4733 40.1029 14.66V14.996ZM48.2942 19C47.9862 19 47.7295 18.93 47.5242 18.79C47.3282 18.65 47.2302 18.496 47.2302 18.328V12.994C47.2302 12.798 47.3282 12.6393 47.5242 12.518C47.7295 12.3967 47.9862 12.336 48.2942 12.336C48.5649 12.336 48.7935 12.3967 48.9802 12.518C49.1669 12.6393 49.2602 12.798 49.2602 12.994V13.512C49.3535 13.3067 49.4842 13.1107 49.6522 12.924C49.8295 12.728 50.0255 12.5693 50.2402 12.448C50.4642 12.3173 50.6929 12.252 50.9262 12.252H51.3322C51.5375 12.252 51.7149 12.3453 51.8642 12.532C52.0229 12.7187 52.1022 12.938 52.1022 13.19C52.1022 13.4513 52.0229 13.6753 51.8642 13.862C51.7149 14.0487 51.5375 14.142 51.3322 14.142H50.9262C50.6742 14.142 50.4315 14.2307 50.1982 14.408C49.9649 14.576 49.7735 14.814 49.6242 15.122C49.4749 15.43 49.4002 15.7987 49.4002 16.228V18.328C49.4002 18.496 49.2929 18.65 49.0782 18.79C48.8635 18.93 48.6022 19 48.2942 19ZM56.254 19.14C55.7686 19.14 55.3486 18.9907 54.994 18.692C54.6393 18.384 54.462 17.9127 54.462 17.278C54.462 16.7273 54.602 16.298 54.882 15.99C55.162 15.682 55.5446 15.4673 56.03 15.346C56.5246 15.2247 57.094 15.164 57.738 15.164H58.242V15.024C58.242 14.8653 58.2093 14.7067 58.144 14.548C58.0786 14.3893 57.9713 14.2587 57.822 14.156C57.6726 14.044 57.4626 13.988 57.192 13.988C56.8093 13.988 56.5246 14.0253 56.338 14.1C56.1513 14.1747 56.0066 14.254 55.904 14.338C55.8013 14.4127 55.6846 14.45 55.554 14.45C55.3206 14.45 55.1386 14.3333 55.008 14.1C54.8866 13.8667 54.826 13.624 54.826 13.372C54.826 13.148 54.952 12.952 55.204 12.784C55.4653 12.616 55.778 12.4853 56.142 12.392C56.5153 12.2987 56.8746 12.252 57.22 12.252C57.9853 12.252 58.6013 12.3827 59.068 12.644C59.5346 12.9053 59.8753 13.246 60.09 13.666C60.3046 14.0767 60.412 14.52 60.412 14.996V18.328C60.412 18.5147 60.3093 18.6733 60.104 18.804C59.908 18.9347 59.656 19 59.348 19C59.0773 19 58.8486 18.9347 58.662 18.804C58.4753 18.6733 58.382 18.5147 58.382 18.328V18.02C58.13 18.3093 57.836 18.5707 57.5 18.804C57.164 19.028 56.7486 19.14 56.254 19.14ZM57.192 17.558C57.3413 17.558 57.4953 17.502 57.654 17.39C57.8126 17.2687 57.948 17.11 58.06 16.914C58.1813 16.718 58.242 16.5033 58.242 16.27V16.214H58.186C57.9246 16.214 57.6726 16.2327 57.43 16.27C57.1966 16.298 57.0053 16.368 56.856 16.48C56.716 16.5827 56.646 16.746 56.646 16.97C56.646 17.1753 56.6973 17.3247 56.8 17.418C56.9026 17.5113 57.0333 17.558 57.192 17.558ZM64.7992 19C64.4819 19 64.2205 18.93 64.0152 18.79C63.8192 18.65 63.7212 18.496 63.7212 18.328V12.994C63.7212 12.798 63.8192 12.6393 64.0152 12.518C64.2205 12.3967 64.4819 12.336 64.7992 12.336C65.0605 12.336 65.2845 12.3967 65.4712 12.518C65.6579 12.6393 65.7512 12.798 65.7512 12.994V13.316C65.8819 13.0453 66.1105 12.8027 66.4372 12.588C66.7639 12.364 67.1605 12.252 67.6272 12.252C68.0565 12.252 68.4485 12.3873 68.8032 12.658C69.1672 12.9193 69.4565 13.274 69.6712 13.722C69.8952 14.1607 70.0072 14.6507 70.0072 15.192V18.328C70.0072 18.552 69.8905 18.72 69.6572 18.832C69.4332 18.944 69.1859 19 68.9152 19C68.6632 19 68.4205 18.944 68.1872 18.832C67.9539 18.72 67.8372 18.552 67.8372 18.328V15.192C67.8372 15.0147 67.7905 14.8467 67.6972 14.688C67.6132 14.5293 67.4919 14.3987 67.3332 14.296C67.1839 14.1933 67.0159 14.142 66.8292 14.142C66.6799 14.142 66.5305 14.184 66.3812 14.268C66.2412 14.352 66.1245 14.4733 66.0312 14.632C65.9379 14.7813 65.8912 14.968 65.8912 15.192V18.328C65.8912 18.496 65.7839 18.65 65.5692 18.79C65.3545 18.93 65.0979 19 64.7992 19ZM74.7137 19.14C74.2284 19.14 73.8084 18.9907 73.4537 18.692C73.0991 18.384 72.9217 17.9127 72.9217 17.278C72.9217 16.7273 73.0617 16.298 73.3417 15.99C73.6217 15.682 74.0044 15.4673 74.4897 15.346C74.9844 15.2247 75.5537 15.164 76.1977 15.164H76.7017V15.024C76.7017 14.8653 76.6691 14.7067 76.6037 14.548C76.5384 14.3893 76.4311 14.2587 76.2817 14.156C76.1324 14.044 75.9224 13.988 75.6517 13.988C75.2691 13.988 74.9844 14.0253 74.7977 14.1C74.6111 14.1747 74.4664 14.254 74.3637 14.338C74.2611 14.4127 74.1444 14.45 74.0137 14.45C73.7804 14.45 73.5984 14.3333 73.4677 14.1C73.3464 13.8667 73.2857 13.624 73.2857 13.372C73.2857 13.148 73.4117 12.952 73.6637 12.784C73.9251 12.616 74.2377 12.4853 74.6017 12.392C74.9751 12.2987 75.3344 12.252 75.6797 12.252C76.4451 12.252 77.0611 12.3827 77.5277 12.644C77.9944 12.9053 78.3351 13.246 78.5497 13.666C78.7644 14.0767 78.8717 14.52 78.8717 14.996V18.328C78.8717 18.5147 78.7691 18.6733 78.5637 18.804C78.3677 18.9347 78.1157 19 77.8077 19C77.5371 19 77.3084 18.9347 77.1217 18.804C76.9351 18.6733 76.8417 18.5147 76.8417 18.328V18.02C76.5897 18.3093 76.2957 18.5707 75.9597 18.804C75.6237 19.028 75.2084 19.14 74.7137 19.14ZM75.6517 17.558C75.8011 17.558 75.9551 17.502 76.1137 17.39C76.2724 17.2687 76.4077 17.11 76.5197 16.914C76.6411 16.718 76.7017 16.5033 76.7017 16.27V16.214H76.6457C76.3844 16.214 76.1324 16.2327 75.8897 16.27C75.6564 16.298 75.4651 16.368 75.3157 16.48C75.1757 16.5827 75.1057 16.746 75.1057 16.97C75.1057 17.1753 75.1571 17.3247 75.2597 17.418C75.3624 17.5113 75.4931 17.558 75.6517 17.558ZM83.385 19C83.0676 19 82.8063 18.93 82.601 18.79C82.405 18.65 82.307 18.496 82.307 18.328V9.186C82.307 8.99 82.405 8.83133 82.601 8.71C82.8063 8.58867 83.0676 8.528 83.385 8.528C83.6836 8.528 83.9403 8.58867 84.155 8.71C84.3696 8.83133 84.477 8.99 84.477 9.186V18.328C84.477 18.496 84.3696 18.65 84.155 18.79C83.9403 18.93 83.6836 19 83.385 19ZM88.3367 22.038C88.0567 22.038 87.8187 21.9867 87.6227 21.884C87.436 21.7813 87.3427 21.5247 87.3427 21.114C87.3427 20.8713 87.38 20.6613 87.4547 20.484C87.5387 20.3067 87.6787 20.218 87.8747 20.218C88.0054 20.218 88.178 20.204 88.3927 20.176C88.6074 20.1573 88.8267 20.092 89.0507 19.98C89.284 19.8773 89.4754 19.7 89.6247 19.448C89.7834 19.2053 89.8627 18.8647 89.8627 18.426L87.4127 13.554C87.366 13.4607 87.3427 13.3673 87.3427 13.274C87.3427 13.0873 87.4267 12.9147 87.5947 12.756C87.7627 12.5973 87.9587 12.4713 88.1827 12.378C88.416 12.2847 88.626 12.238 88.8127 12.238C88.9434 12.238 89.0647 12.266 89.1767 12.322C89.2887 12.3687 89.368 12.4573 89.4147 12.588L90.9967 16.382L92.1587 12.588C92.2054 12.4573 92.28 12.3687 92.3827 12.322C92.4947 12.266 92.6067 12.238 92.7187 12.238C92.8867 12.238 93.0874 12.2893 93.3207 12.392C93.5634 12.4853 93.7734 12.6113 93.9507 12.77C94.128 12.9287 94.2167 13.1107 94.2167 13.316C94.2167 13.4093 94.198 13.4887 94.1607 13.554L92.1727 18.51C91.9954 18.9487 91.8274 19.378 91.6687 19.798C91.51 20.218 91.3047 20.596 91.0527 20.932C90.81 21.268 90.474 21.534 90.0447 21.73C89.6154 21.9353 89.046 22.038 88.3367 22.038ZM97.34 19C97.0787 19 96.892 18.9207 96.78 18.762C96.6774 18.594 96.626 18.4213 96.626 18.244C96.626 18.0667 96.6634 17.9033 96.738 17.754C96.822 17.6047 96.9107 17.4693 97.004 17.348L99.482 14.086H97.34C97.172 14.086 97.0274 14.002 96.906 13.834C96.7847 13.6567 96.724 13.4467 96.724 13.204C96.724 12.9707 96.78 12.77 96.892 12.602C97.004 12.4247 97.1534 12.336 97.34 12.336H101.526C101.703 12.336 101.857 12.3967 101.988 12.518C102.128 12.63 102.198 12.8073 102.198 13.05C102.198 13.3673 102.081 13.68 101.848 13.988L99.356 17.25H101.834C102.002 17.25 102.147 17.3387 102.268 17.516C102.389 17.684 102.45 17.8893 102.45 18.132C102.45 18.3653 102.394 18.5707 102.282 18.748C102.17 18.916 102.021 19 101.834 19H97.34ZM106.457 11.048C106.14 11.048 105.869 10.9453 105.645 10.74C105.421 10.5347 105.309 10.3013 105.309 10.04C105.309 9.76933 105.421 9.536 105.645 9.34C105.869 9.144 106.14 9.046 106.457 9.046C106.775 9.046 107.041 9.144 107.255 9.34C107.479 9.536 107.591 9.76933 107.591 10.04C107.591 10.3013 107.479 10.5347 107.255 10.74C107.041 10.9453 106.775 11.048 106.457 11.048ZM106.457 19C106.14 19 105.879 18.93 105.673 18.79C105.477 18.65 105.379 18.496 105.379 18.328V12.994C105.379 12.798 105.477 12.6393 105.673 12.518C105.879 12.3967 106.14 12.336 106.457 12.336C106.756 12.336 107.013 12.3967 107.227 12.518C107.442 12.6393 107.549 12.798 107.549 12.994V18.328C107.549 18.496 107.442 18.65 107.227 18.79C107.013 18.93 106.756 19 106.457 19ZM111.975 19C111.658 19 111.397 18.93 111.191 18.79C110.995 18.65 110.897 18.496 110.897 18.328V12.994C110.897 12.798 110.995 12.6393 111.191 12.518C111.397 12.3967 111.658 12.336 111.975 12.336C112.237 12.336 112.461 12.3967 112.647 12.518C112.834 12.6393 112.927 12.798 112.927 12.994V13.316C113.058 13.0453 113.287 12.8027 113.613 12.588C113.94 12.364 114.337 12.252 114.803 12.252C115.233 12.252 115.625 12.3873 115.979 12.658C116.343 12.9193 116.633 13.274 116.847 13.722C117.071 14.1607 117.183 14.6507 117.183 15.192V18.328C117.183 18.552 117.067 18.72 116.833 18.832C116.609 18.944 116.362 19 116.091 19C115.839 19 115.597 18.944 115.363 18.832C115.13 18.72 115.013 18.552 115.013 18.328V15.192C115.013 15.0147 114.967 14.8467 114.873 14.688C114.789 14.5293 114.668 14.3987 114.509 14.296C114.36 14.1933 114.192 14.142 114.005 14.142C113.856 14.142 113.707 14.184 113.557 14.268C113.417 14.352 113.301 14.4733 113.207 14.632C113.114 14.7813 113.067 14.968 113.067 15.192V18.328C113.067 18.496 112.96 18.65 112.745 18.79C112.531 18.93 112.274 19 111.975 19ZM123.206 22.038C122.655 22.038 122.133 21.9587 121.638 21.8C121.153 21.6413 120.761 21.408 120.462 21.1C120.163 20.8013 120.014 20.4373 120.014 20.008C120.014 19.672 120.103 19.3827 120.28 19.14C120.457 18.8973 120.681 18.7013 120.952 18.552C120.803 18.4587 120.681 18.342 120.588 18.202C120.495 18.062 120.448 17.8893 120.448 17.684C120.448 17.4227 120.513 17.208 120.644 17.04C120.784 16.8627 120.957 16.6993 121.162 16.55C120.873 16.3353 120.649 16.0787 120.49 15.78C120.331 15.472 120.252 15.136 120.252 14.772V14.562C120.252 14.1047 120.369 13.7033 120.602 13.358C120.845 13.0127 121.181 12.742 121.61 12.546C122.049 12.35 122.553 12.252 123.122 12.252C123.421 12.252 123.705 12.2847 123.976 12.35C124.247 12.406 124.489 12.4853 124.704 12.588C124.872 12.1773 125.017 11.9113 125.138 11.79C125.259 11.6687 125.381 11.608 125.502 11.608C125.763 11.608 125.964 11.6827 126.104 11.832C126.253 11.9813 126.328 12.1213 126.328 12.252C126.328 12.3267 126.309 12.4013 126.272 12.476C126.235 12.5413 126.179 12.6067 126.104 12.672C126.02 12.7467 125.922 12.826 125.81 12.91C125.707 12.9847 125.605 13.0733 125.502 13.176C125.679 13.3627 125.81 13.5727 125.894 13.806C125.987 14.0393 126.034 14.2913 126.034 14.562V14.772C126.034 15.22 125.908 15.6213 125.656 15.976C125.413 16.3213 125.073 16.5967 124.634 16.802C124.195 17.0073 123.691 17.11 123.122 17.11C122.814 17.11 122.534 17.082 122.282 17.026C122.263 17.0633 122.249 17.096 122.24 17.124C122.231 17.152 122.226 17.18 122.226 17.208C122.226 17.3387 122.324 17.432 122.52 17.488C122.725 17.544 122.982 17.5907 123.29 17.628C123.607 17.6653 123.943 17.7167 124.298 17.782C124.653 17.8473 124.984 17.95 125.292 18.09C125.609 18.23 125.866 18.4353 126.062 18.706C126.267 18.9673 126.37 19.3173 126.37 19.756C126.37 20.3067 126.211 20.75 125.894 21.086C125.586 21.422 125.189 21.6647 124.704 21.814C124.228 21.9633 123.729 22.038 123.206 22.038ZM123.164 20.666C123.444 20.666 123.696 20.5867 123.92 20.428C124.153 20.2787 124.27 20.0733 124.27 19.812C124.27 19.6533 124.223 19.5227 124.13 19.42C124.046 19.3173 123.925 19.2333 123.766 19.168C123.617 19.112 123.439 19.0653 123.234 19.028C123.038 19 122.833 18.972 122.618 18.944C122.431 19.0373 122.291 19.1587 122.198 19.308C122.105 19.4573 122.058 19.616 122.058 19.784C122.058 20.0733 122.17 20.2927 122.394 20.442C122.627 20.5913 122.884 20.666 123.164 20.666ZM123.15 15.85C123.393 15.85 123.584 15.752 123.724 15.556C123.864 15.3507 123.934 15.0893 123.934 14.772V14.562C123.934 14.2727 123.864 14.0253 123.724 13.82C123.593 13.6147 123.397 13.512 123.136 13.512C122.884 13.512 122.688 13.6147 122.548 13.82C122.417 14.0253 122.352 14.2727 122.352 14.562V14.758C122.352 15.066 122.417 15.3273 122.548 15.542C122.688 15.7473 122.889 15.85 123.15 15.85Z" fill="#F7F7F7"/>
<rect x="0.25" y="0.25" width="23.5" height="23.5" rx="3.75" stroke="#F7F7F7" stroke-width="0.5"/>
<path d="M11.9899 20.12C11.0699 20.12 10.2366 19.9667 9.48992 19.66C8.75659 19.3533 8.16992 18.8533 7.72992 18.16C7.30326 17.4667 7.08992 16.5467 7.08992 15.4V10.1C7.08992 8.95333 7.30326 8.03333 7.72992 7.34C8.16992 6.64667 8.75659 6.14667 9.48992 5.84C10.2366 5.53333 11.0699 5.38 11.9899 5.38C12.9099 5.38 13.7433 5.53333 14.4899 5.84C15.2366 6.14667 15.8233 6.64667 16.2499 7.34C16.6899 8.03333 16.9099 8.95333 16.9099 10.1V15.4C16.9099 16.5467 16.6899 17.4667 16.2499 18.16C15.8233 18.8533 15.2366 19.3533 14.4899 19.66C13.7433 19.9667 12.9099 20.12 11.9899 20.12ZM11.9899 17.4C12.5499 17.4 12.9899 17.24 13.3099 16.92C13.6299 16.6 13.7899 16.0933 13.7899 15.4V10.1C13.7899 9.40667 13.6299 8.9 13.3099 8.58C12.9899 8.26 12.5499 8.1 11.9899 8.1C11.4299 8.1 10.9899 8.26 10.6699 8.58C10.3633 8.9 10.2099 9.40667 10.2099 10.1V15.4C10.2099 16.0933 10.3633 16.6 10.6699 16.92C10.9899 17.24 11.4299 17.4 11.9899 17.4Z" fill="#F7F7F7"/>
</svg>
